<svg xmlns="http://www.w3.org/2000/svg" viewBox="0 0 24 24" fill="rgb(212,140,112)">
  <path d="M12 .5C5.65.5.5 5.65.5 12c0 5.08 3.29 9.38 7.86 10.9.57.1.78-.25.78-.56v-2.02c-3.2.7-3.87-1.54-3.87-1.54-.52-1.3-1.27-1.65-1.27-1.65-1.04-.71.08-.7.08-.7 1.15.08 1.75 1.18 1.75 1.18 1.02 1.75 2.67 1.24 3.32.95.1-.74.4-1.24.72-1.52-2.55-.29-5.23-1.28-5.23-5.7 0-1.26.45-2.3 1.18-3.11-.12-.29-.51-1.46.11-3.04 0 0 .96-.31 3.15 1.19a10.9 10.9 0 012.87-.39c.97 0 1.95.13 2.87.39 2.19-1.5 3.15-1.19 3.15-1.19.62 1.58.23 2.75.11 3.04.73.81 1.18 1.85 1.18 3.11 0 4.43-2.69 5.4-5.25 5.69.41.35.77 1.03.77 2.08v3.08c0 .31.21.67.79.56A10.51 10.51 0 0023.5 12C23.5 5.65 18.35.5 12 .5z"/>
</svg>